<?xml version="1.0" encoding="UTF-8" standalone="no"?>
<!-- Created with clker.com Auto tracing tool http://www.clker.com) -->
<svg xmlns:dc="http://purl.org/dc/elements/1.1/" xmlns:cc="http://creativecommons.org/ns#" xmlns:rdf="http://www.w3.org/1999/02/22-rdf-syntax-ns#" xmlns:svg="http://www.w3.org/2000/svg" xmlns="http://www.w3.org/2000/svg" xmlns:sodipodi="http://sodipodi.sourceforge.net/DTD/sodipodi-0.dtd" xmlns:inkscape="http://www.inkscape.org/namespaces/inkscape" width="434" height="515" id="svg2" version="1.1" inkscape:version="0.47pre4 r22446" sodipodi:docname="masjid.svg">
  <metadata id="metadata466">
    <rdf:RDF>
      <cc:Work rdf:about="">
        <dc:format>image/svg+xml</dc:format>
        <dc:type rdf:resource="http://purl.org/dc/dcmitype/StillImage"/>
        <dc:title/>
      </cc:Work>
    </rdf:RDF>
  </metadata>
  <defs id="defs464">
    <inkscape:perspective sodipodi:type="inkscape:persp3d" inkscape:vp_x="0 : 277 : 1" inkscape:vp_y="0 : 1000 : 0" inkscape:vp_z="455 : 277 : 1" inkscape:persp3d-origin="227.5 : 184.66667 : 1" id="perspective468"/>
    <inkscape:perspective id="perspective3506" inkscape:persp3d-origin="0.5 : 0.33333333 : 1" inkscape:vp_z="1 : 0.5 : 1" inkscape:vp_y="0 : 1000 : 0" inkscape:vp_x="0 : 0.5 : 1" sodipodi:type="inkscape:persp3d"/>
    <filter id="filter5182" x="0" y="0" width="1" height="1" inkscape:label="Fluorescence" inkscape:menu="Color" inkscape:menu-tooltip="Oversaturate colors which can be fluorescent in real world" color-interpolation-filters="sRGB">
      <feFlood id="feFlood5184" result="result1" flood-opacity="0" flood-color="rgb(128,128,128)"/>
      <feBlend id="feBlend5186" in2="SourceGraphic" mode="normal" result="result2"/>
      <feComposite id="feComposite5188" in2="SourceGraphic" k2="1" operator="arithmetic" result="result3" k1="0" k3="0" k4="0"/>
      <feComposite id="feComposite5190" in2="SourceGraphic" operator="in" result="fbSourceGraphic"/>
      <feColorMatrix result="fbSourceGraphicAlpha" in="fbSourceGraphic" values="0 0 0 -1 0 0 0 0 -1 0 0 0 0 -1 0 0 0 0 1 0" id="feColorMatrix5200"/>
      <feColorMatrix id="feColorMatrix5202" type="hueRotate" values="180" result="fbSourceGraphic" in="fbSourceGraphic"/>
      <feColorMatrix id="feColorMatrix5204" in="fbSourceGraphic" values="-1 0 0 0 1 0 -1 0 0 1 0 0 -1 0 1 0 0 0 1 0 " result="result3"/>
      <feBlend id="feBlend5206" in2="result3" mode="lighten" in="fbSourceGraphic" result="result2"/>
      <feBlend id="feBlend5208" in2="result2" mode="multiply" result="result1" in="result2"/>
      <feComposite id="feComposite5210" in2="fbSourceGraphic" operator="in" result="fbSourceGraphic"/>
      <feColorMatrix result="fbSourceGraphicAlpha" in="fbSourceGraphic" values="0 0 0 -1 0 0 0 0 -1 0 0 0 0 -1 0 0 0 0 1 0" id="feColorMatrix5212"/>
      <feColorMatrix id="feColorMatrix5214" type="hueRotate" values="0" in="fbSourceGraphic"/>
      <feColorMatrix id="feColorMatrix5216" type="saturate" values="1"/>
      <feColorMatrix id="feColorMatrix5218" type="matrix" values="2 -1 0 0 0 0 2 -1 0 0 -1 0 2 0 0 0 0 0 1 0 "/>
    </filter>
  </defs>
  <sodipodi:namedview pagecolor="#ffffff" bordercolor="#666666" borderopacity="1" objecttolerance="10" gridtolerance="10" guidetolerance="10" inkscape:pageopacity="0" inkscape:pageshadow="2" inkscape:window-width="1680" inkscape:window-height="975" id="namedview462" showgrid="false" inkscape:zoom="0.85198556" inkscape:cx="187.4102" inkscape:cy="182.68246" inkscape:window-x="0" inkscape:window-y="25" inkscape:window-maximized="1" inkscape:current-layer="svg2"/>
  <path style="fill:#000000;stroke:none;stroke-width:5;stroke-linecap:butt;stroke-linejoin:miter;stroke-miterlimit:4;stroke-opacity:1;stroke-dasharray:none;fill-opacity:1" d="m 58.48489,0.3631769 c -3.13356,5.439202 -7.52426,14.0335841 -2.0951,19.9049011 2.08364,8.356244 -25.69361,22.042698 -23.9049,38.0951 -0.66082,9.00694 4.14975,16.13732 2.5625,25.625 0.77095,11.44202 0.3186,22.915962 0.4375,34.375002 -15.6348,4.18826 -2.94732,19.06658 -2.39762,29.20477 5.053,8.65623 0.64365,17.06844 -6.60238,20.1422 -0.76396,7.66905 5.21371,21.33898 7,24.65303 2.29857,3.01876 0.26456,13.29069 -2.04755,15.95245 6.57536,5.80545 2.42474,18.50366 4.04755,27.43542 0.23535,11.91991 -1.58446,23.65135 -1,35.61213 -2.58996,9.11807 0.24108,20.47513 -1.9375,30.1875 0.26372,21.35283 -1.74589,42.42848 -1.0625,63.8125 -2.22009,24.53924 0.19841,49.43509 -3,74 -9.5724,1.77449 -20.96723,1.61363 -28,9 4.90246,9.60249 -6.44011,30.30953 8.75,32 13.71131,1.56335 6.01843,16.92101 8.6875,26 -3.16544,13.30795 12.32959,6.30045 19.95037,8 61.53738,0 123.07475,0 184.61213,0 8.33013,-2.49997 17.91444,1.30832 28,0 9.48283,-1.38141 16.21954,0.46872 26.77575,0 52.07475,0 104.1495,0 156.22425,0 0.12047,-24.97005 -0.16957,-50.82319 0,-75 -15.50413,-3.23979 -36.16533,-2.48613 -52,-5 -10.44618,0.28196 -22.12417,-0.6883 -31,-2 -10.31088,-0.98638 1.44444,-13.67389 0,-20 1.04665,-10.15349 5.83447,-16.43698 4,-27 1.48746,-26.3633 -18.9271,-46.10265 -36.28676,-63.28676 -21.74952,-18.91847 -45.75339,-36.05686 -72.71324,-46.71324 1.5898,-2.78978 -22.94683,-7.14859 -11,-20 9.60907,-6.49286 -1.12413,-24.25512 -8.42595,-21.72215 -10.90461,11.33509 -1.69251,16.04154 -1.76155,14.03465 -6.91376,5.31172 9.83202,13.65391 -1.8125,22.6875 13.73663,-1.24578 -13.82454,2.67575 -18.04765,8.02383 -34.98096,16.26504 -63.85152,43.30084 -87.95235,72.97617 -5.48763,8.28867 -9.29447,16.17612 -8.78302,26.39621 -2.0393,17.27157 5.6299,34.75209 8.78302,48.60379 2.10213,9.7688 -9.78323,5.55011 -16,7 -11.25669,3.28689 -10.80868,-6.0226 -10,-14.34697 0.11575,-18.11906 -2.25313,-35.21209 -1.23438,-52.79366 -0.94739,-13.36655 -0.43335,-28.40811 -2.01562,-40.60937 0.63665,-36.46084 -3.55049,-72.77932 -2.75,-109.25 3.94952,-8.54783 1.27422,-16.59652 2.66432,-27.98592 2.3687,-6.38292 6.08598,-15.91788 3.33568,-24.01408 -14.17101,-1.71008 -3.8087,-16.69126 -2.69325,-25.22701 6.39478,-11.0679 -1.20202,-17.53577 -4.30675,-25.46693 0.15964,-16.086882 -0.5523,-32.516872 2,-48.306062 6.3163,-17.873732 -18.22445,-31.481808 -24,-45.693938 7.58584,-5.101291 -0.086,-12.7713181 -1,-18.6530321 0.56704,-1.451381 -1.51896,-0.249732 -2,-0.653031 z M 58.76614,137.48818 c 7.58281,8.83064 7.99017,29.90898 -4.2337,21.92255 -0.34081,-7.46095 0.0461,-15.48958 4.2337,-21.92255 z m 16.71875,4.875 c 1.20873,5.92427 1.89932,28.00028 -4,15.30606 -0.67793,-5.75053 2.15864,-10.64841 4,-15.30606 z m 153,70 c -1.55111,6.07215 -4.54329,12.33771 -1,17 6.50076,2.7588 3.11767,-13.62923 1,-17 z m -145,1 c 1.34915,-0.3101 -0.42418,1.12442 0,0 z m -2,3.5 c -3.59414,0.91487 -0.98919,0.25179 0,0 z m 2,34.5 c 0.50432,1.59069 -3.15212,6.25524 0,0 z m 149,5 c -4.16297,1.56818 -1.3427,3.46805 0,0 z m -149,28 c -0.59136,5.85047 -1.27371,0.61 0,0 z m 9,151.99985 c 1.48859,-0.94365 3.73371,3.44506 0,0 z m 2,2 c 1.59243,0.87006 -0.91636,4.0013 0,0 z" id="path4-0" sodipodi:nodetypes="ccccccccccccccccccccccccccccccccccccccccccccccccccccccccccccccccccccccccc"/>
</svg>